name Walk1.mot
datacolumns 19
datarows 15
range 4.41500000 4.48500000
endheader

                time	   L_ground_force_vx	   L_ground_force_vy	   L_ground_force_vz	   L_ground_force_px	   L_ground_force_py	   L_ground_force_pz	   R_ground_force_vx	   R_ground_force_vy	   R_ground_force_vz	   R_ground_force_px	   R_ground_force_py	   R_ground_force_pz	   L_ground_torque_x	   L_ground_torque_y	   L_ground_torque_z	   R_ground_torque_x	   R_ground_torque_y	   R_ground_torque_z	
          4.41500000	          0.00000000	          0.00000000	         -0.00000000	         -0.00000000	          0.00000000	         -0.00000000	         20.55069397	         64.43365273	          2.86090777	          0.27776193	          0.00000000	          0.06555574	          0.00000000	          0.00000000	          0.00000000	          0.00000000	         -4.43986741	          0.00000000	
          4.42000000	          0.00000000	          0.00000000	         -0.00000000	         -0.00000000	          0.00000000	         -0.00000000	         14.56914937	         41.88167943	          2.56475622	          0.23244623	          0.00000000	          0.05425567	          0.00000000	          0.00000000	          0.00000000	          0.00000000	         -3.21383056	          0.00000000	
          4.42500000	          0.00000000	          0.00000000	         -0.00000000	         -0.00000000	          0.00000000	         -0.00000000	          9.58430304	         24.11765861	          2.17281672	          0.18537523	          0.00000000	          0.04279598	          0.00000000	          0.00000000	          0.00000000	          0.00000000	         -2.17427131	          0.00000000	
          4.43000000	          0.00000000	          0.00000000	         -0.00000000	         -0.00000000	          0.00000000	         -0.00000000	          5.62962961	         10.81857021	          1.74963390	          0.14053125	          0.00000000	          0.03206301	          0.00000000	          0.00000000	          0.00000000	          0.00000000	         -1.33566746	          0.00000000	
          4.43500000	          0.00000000	          0.00000000	         -0.00000000	         -0.00000000	          0.00000000	         -0.00000000	          2.64833851	          1.43450435	          1.33988007	          0.10065935	          0.00000000	          0.02264436	          0.00000000	          0.00000000	          0.00000000	          0.00000000	         -0.69225192	          0.00000000	
          4.44000000	          0.00000000	          0.00000000	         -0.00000000	         -0.00000000	          0.00000000	         -0.00000000	          0.52704273	         -4.69676725	          0.97114456	          0.06712933	          0.00000000	          0.01481348	          0.00000000	          0.00000000	          0.00000000	          0.00000000	         -0.22489324	          0.00000000	
          4.44500000	          0.00000000	         -0.00000000	         -0.00000000	         -0.00000000	          0.00000000	         -0.00000000	         -0.87498587	         -8.25717545	          0.65787583	          0.04031806	          0.00000000	          0.00862011	          0.00000000	          0.00000000	          0.00000000	          0.00000000	          0.09260117	          0.00000000	
          4.45000000	          0.00000000	         -0.00000000	         -0.00000000	         -0.00000000	          0.00000000	         -0.00000000	         -1.70487884	         -9.88735351	          0.40495264	          0.01993585	          0.00000000	          0.00396668	          0.00000000	          0.00000000	          0.00000000	          0.00000000	          0.28888054	          0.00000000	
          4.45500000	         -0.00000000	         -0.00000000	         -0.00000000	         -0.00000000	          0.00000000	         -0.00000000	         -2.10223783	        -10.15078502	          0.21073104	          0.00528844	          0.00000000	          0.00066881	          0.00000000	         -0.00000000	          0.00000000	          0.00000000	          0.39190375	          0.00000000	
          4.46000000	         -0.00000000	         -0.00000000	         -0.00000000	         -0.00000000	          0.00000000	         -0.00000000	         -2.19079486	         -9.51691418	          0.06951421	         -0.00452291	          0.00000000	         -0.00149895	          0.00000000	         -0.00000000	          0.00000000	          0.00000000	          0.42697569	          0.00000000	
          4.46500000	         -0.00000000	         -0.00000000	         -0.00000000	          0.00000000	          0.00000000	          0.00000000	         -2.07431938	         -8.35775225	         -0.02654314	         -0.01045703	          0.00000000	         -0.00277054	          0.00000000	         -0.00000000	          0.00000000	          0.00000000	          0.41569803	          0.00000000	
          4.47000000	         -0.00000000	         -0.00000000	         -0.00000000	          0.00000000	          0.00000000	          0.00000000	         -1.83557233	         -6.95340701	         -0.08604362	         -0.01343544	          0.00000000	         -0.00336687	          0.00000000	         -0.00000000	          0.00000000	          0.00000000	          0.37558919	          0.00000000	
          4.47500000	         -0.00000000	         -0.00000000	         -0.00000000	          0.00000000	          0.00000000	          0.00000000	         -1.53729690	         -5.50289720	         -0.11739511	         -0.01428286	          0.00000000	         -0.00348301	          0.00000000	         -0.00000000	          0.00000000	          0.00000000	          0.32016361	          0.00000000	
          4.48000000	         -0.00000000	         -0.00000000	          0.00000000	          0.00000000	          0.00000000	          0.00000000	         -1.22443704	         -4.13750072	         -0.12821568	         -0.01369669	          0.00000000	         -0.00328202	          0.00000000	         -0.00000000	          0.00000000	          0.00000000	          0.25929919	          0.00000000	
          4.48500000	         -0.00000000	         -0.00000000	          0.00000000	          0.00000000	          0.00000000	          0.00000000	         -0.92696791	         -2.93467213	         -0.12501439	         -0.01223755	          0.00000000	         -0.00289356	          0.00000000	         -0.00000000	          0.00000000	          0.00000000	          0.19976059	          0.00000000	
